<svg xmlns="http://www.w3.org/2000/svg" width="900" height="1200" viewBox="0 0 900 1200" role="img" aria-label="Merino knit polo product image">
  <defs><linearGradient id="bg" x1="0" y1="0" x2="0" y2="1"><stop offset="0%" stop-color="#f2eee7"/><stop offset="100%" stop-color="#ddd4c8"/></linearGradient></defs>
  <rect width="900" height="1200" fill="url(#bg)"/>
  <ellipse cx="450" cy="1060" rx="220" ry="42" fill="#000" opacity="0.13"/>
  <path d="M310 260h280l78 110-68 46-32-58v530c0 42-34 76-76 76H408c-42 0-76-34-76-76V358l-32 58-68-46z" fill="#bfb2a0"/>
  <path d="M362 260l88 96 88-96" fill="none" stroke="#8f806f" stroke-width="12" stroke-linecap="round"/>
  <rect x="420" y="356" width="60" height="90" rx="12" fill="#a49683"/>
  <g stroke="#ab9d8a" stroke-width="6" opacity="0.75">
    <line x1="350" y1="470" x2="550" y2="470"/><line x1="346" y1="530" x2="554" y2="530"/><line x1="342" y1="590" x2="558" y2="590"/><line x1="338" y1="650" x2="562" y2="650"/><line x1="334" y1="710" x2="566" y2="710"/><line x1="330" y1="770" x2="570" y2="770"/>
  </g>
</svg>
